<?xml version="1.0" encoding="UTF-8"?>
<svg xmlns="http://www.w3.org/2000/svg" xmlns:xlink="http://www.w3.org/1999/xlink" width="172.566" height="172.568" viewBox="0 0 172.566 172.568">
<defs>
<clipPath id="clip-0">
<path clip-rule="nonzero" d="M 0 0 L 172.566406 0 L 172.566406 172.566406 L 0 172.566406 Z M 0 0 "/>
</clipPath>
</defs>
<g clip-path="url(#clip-0)">
<path fill-rule="nonzero" fill="rgb(13.729858%, 12.159729%, 12.548828%)" fill-opacity="1" d="M 86.28125 3.441406 C 40.652344 3.441406 3.441406 40.652344 3.441406 86.28125 C 3.441406 131.910156 40.652344 169.128906 86.28125 169.128906 C 131.914062 169.128906 169.125 131.910156 169.125 86.28125 C 169.125 40.652344 131.914062 3.441406 86.28125 3.441406 M 86.28125 0 C 133.804688 0 172.566406 38.761719 172.566406 86.28125 C 172.566406 133.804688 133.804688 172.566406 86.28125 172.566406 C 38.761719 172.566406 0 133.804688 0 86.28125 C 0 38.761719 38.761719 0 86.28125 0 "/>
</g>
<path fill-rule="nonzero" fill="rgb(13.729858%, 12.159729%, 12.548828%)" fill-opacity="1" d="M 55.972656 123.058594 C 50.578125 118.589844 46.160156 112.96875 43.136719 106.566406 C 40.222656 100.402344 38.59375 93.53125 38.59375 86.285156 C 38.59375 60.015625 60.019531 38.59375 86.28125 38.59375 C 112.546875 38.59375 133.972656 60.015625 133.972656 86.285156 C 133.972656 93.53125 132.339844 100.402344 129.425781 106.566406 C 126.398438 112.96875 121.988281 118.589844 116.585938 123.058594 L 115.492188 121.734375 C 120.703125 117.429688 124.957031 112.003906 127.875 105.832031 C 130.675781 99.898438 132.25 93.269531 132.25 86.285156 C 132.25 60.964844 111.601562 40.3125 86.28125 40.3125 C 60.964844 40.3125 40.316406 60.964844 40.316406 86.285156 C 40.316406 93.269531 41.882812 99.898438 44.6875 105.832031 C 47.605469 112.003906 51.855469 117.429688 57.070312 121.734375 Z M 55.972656 123.058594 "/>
<path fill-rule="evenodd" fill="rgb(13.729858%, 12.159729%, 12.548828%)" fill-opacity="1" d="M 12.394531 115.085938 L 9.140625 106.359375 L 10.917969 105.734375 L 25.835938 108.007812 L 23.554688 101.886719 L 25.328125 101.269531 L 28.304688 109.265625 L 26.527344 109.878906 L 11.617188 107.613281 L 14.167969 114.464844 Z M 12.394531 115.085938 "/>
<path fill-rule="evenodd" fill="rgb(13.729858%, 12.159729%, 12.548828%)" fill-opacity="1" d="M 18.074219 126.988281 L 17.175781 125.246094 L 24.1875 121.636719 L 21.964844 117.316406 L 14.953125 120.917969 L 14.054688 119.175781 L 29.046875 111.464844 L 29.941406 113.207031 L 23.628906 116.457031 L 25.851562 120.78125 L 32.171875 117.535156 L 33.066406 119.277344 Z M 18.074219 126.988281 "/>
<path fill-rule="evenodd" fill="rgb(13.729858%, 12.159729%, 12.548828%)" fill-opacity="1" d="M 25.183594 136.488281 L 19.855469 129.046875 L 33.914062 120.3125 L 38.988281 127.390625 L 37.425781 128.359375 L 33.5625 122.964844 L 29.199219 125.675781 L 32.75 130.628906 L 31.1875 131.597656 L 27.636719 126.640625 L 22.621094 129.757812 L 26.746094 135.519531 Z M 25.183594 136.488281 "/>
<path fill-rule="evenodd" fill="rgb(13.729858%, 12.159729%, 12.548828%)" fill-opacity="1" d="M 37.136719 148.179688 L 35.355469 146.671875 L 45.703125 133.957031 L 47.488281 135.464844 Z M 37.136719 148.179688 "/>
<path fill-rule="evenodd" fill="rgb(13.729858%, 12.159729%, 12.548828%)" fill-opacity="1" d="M 48.25 147.074219 L 50.78125 141.257812 L 50.546875 141.0625 L 46.175781 145.519531 Z M 45.152344 153.78125 L 47.273438 149.273438 L 44.699219 147.410156 L 40.878906 151.136719 L 39.125 149.78125 L 51.261719 137.800781 L 53.695312 139.28125 L 47.238281 154.953125 Z M 45.152344 153.78125 "/>
<path fill-rule="evenodd" fill="rgb(13.729858%, 12.159729%, 12.548828%)" fill-opacity="1" d="M 57.316406 159.660156 L 55.125 158.640625 L 56.402344 146.945312 L 51.605469 156.777344 L 49.425781 155.773438 L 57.027344 140.71875 L 59.007812 141.628906 L 58.085938 152.742188 L 63.027344 143.566406 L 64.867188 144.328125 Z M 57.316406 159.660156 "/>
<path fill-rule="evenodd" fill="rgb(13.729858%, 12.159729%, 12.548828%)" fill-opacity="1" d="M 68.632812 163.039062 L 67.21875 162.574219 L 67.351562 161.25 C 67.023438 161.535156 66.582031 161.71875 66.039062 161.796875 C 65.492188 161.886719 64.945312 161.832031 64.390625 161.648438 C 63.21875 161.269531 62.359375 160.359375 61.800781 158.902344 C 61.238281 157.453125 61.355469 155.445312 62.136719 152.902344 C 62.992188 150.121094 64.054688 148.183594 65.304688 147.089844 C 66.554688 146.007812 68.457031 145.402344 70.140625 145.9375 C 71.953125 146.515625 73.128906 148.746094 72.613281 151.832031 L 70.449219 151.652344 C 70.816406 150.332031 70.625 148.269531 69.335938 147.851562 C 68.289062 147.511719 67.121094 147.832031 66.371094 148.667969 C 65.628906 149.5 64.902344 151.066406 64.191406 153.382812 C 63.515625 155.570312 63.328125 157.167969 63.625 158.175781 C 63.921875 159.191406 64.4375 159.8125 65.160156 160.046875 C 65.878906 160.28125 66.535156 160.1875 67.125 159.753906 C 67.714844 159.339844 68.195312 158.519531 68.558594 157.339844 L 68.863281 156.359375 L 66.273438 155.527344 L 66.796875 153.839844 L 71.042969 155.21875 Z M 68.632812 163.039062 "/>
<path fill-rule="evenodd" fill="rgb(13.729858%, 12.159729%, 12.548828%)" fill-opacity="1" d="M 91.066406 159.324219 C 91.015625 160.839844 90.609375 162.03125 89.851562 162.894531 C 89.089844 163.746094 87.921875 164.148438 86.335938 164.082031 C 84.753906 164.027344 83.605469 163.542969 82.898438 162.625 C 82.203125 161.714844 81.871094 160.5 81.917969 158.980469 L 82.292969 147.488281 L 84.3125 147.570312 L 83.941406 159.054688 C 83.90625 160.136719 84.121094 160.933594 84.570312 161.453125 C 85.023438 161.980469 85.628906 162.253906 86.390625 162.289062 C 87.152344 162.316406 87.777344 162.078125 88.261719 161.59375 C 88.746094 161.101562 89.007812 160.320312 89.042969 159.246094 L 89.417969 147.765625 L 91.4375 147.839844 Z M 91.066406 159.324219 "/>
<path fill-rule="evenodd" fill="rgb(13.729858%, 12.159729%, 12.548828%)" fill-opacity="1" d="M 102.582031 162.386719 L 100.773438 162.664062 L 95.085938 151.699219 L 95.949219 163.472656 L 93.804688 163.777344 L 92.550781 147.273438 L 95.019531 147.042969 L 99.714844 154.730469 L 98.839844 146.457031 L 100.632812 146.152344 Z M 102.582031 162.386719 "/>
<path fill-rule="evenodd" fill="rgb(13.729858%, 12.159729%, 12.548828%)" fill-opacity="1" d="M 108.742188 160.660156 L 106.628906 161.304688 L 102.226562 145.6875 L 104.34375 145.035156 Z M 108.742188 160.660156 "/>
<path fill-rule="evenodd" fill="rgb(13.729858%, 12.159729%, 12.548828%)" fill-opacity="1" d="M 114.453125 140.863281 L 117.125 158.113281 L 115.042969 159.136719 L 105.902344 144.5 L 107.910156 143.648438 L 114.265625 153.640625 L 112.503906 141.710938 Z M 114.453125 140.863281 "/>
<path fill-rule="evenodd" fill="rgb(13.729858%, 12.159729%, 12.548828%)" fill-opacity="1" d="M 131.417969 150.640625 L 123.707031 154.808594 L 115.316406 140.394531 L 122.644531 136.433594 L 123.578125 138.035156 L 117.984375 141.058594 L 120.585938 145.523438 L 125.726562 142.75 L 126.660156 144.347656 L 121.519531 147.125 L 124.515625 152.269531 L 130.484375 149.039062 Z M 131.417969 150.640625 "/>
<path fill-rule="evenodd" fill="rgb(13.729858%, 12.159729%, 12.548828%)" fill-opacity="1" d="M 129.546875 134.707031 C 128.292969 134.363281 127.296875 135.332031 126.394531 136.03125 L 129.683594 140.378906 C 130.6875 139.652344 131.15625 139.5 131.914062 138.1875 C 132.242188 136.613281 131.539062 135.246094 129.546875 134.707031 M 140.199219 144.480469 L 138.503906 145.933594 L 132.53125 140.984375 L 130.984375 142.382812 L 135.023438 147.875 L 133.328125 149.644531 L 123.441406 135.765625 L 126.59375 133.507812 C 127.597656 132.78125 128.925781 132.269531 130.121094 132.410156 C 133.195312 132.777344 134.511719 134.851562 134.375 137.265625 C 134.328125 138.027344 134.285156 138.765625 133.984375 139.523438 Z M 140.199219 144.480469 "/>
<path fill-rule="evenodd" fill="rgb(13.729858%, 12.159729%, 12.548828%)" fill-opacity="1" d="M 145.53125 131.074219 C 148.980469 133.15625 148.175781 139.027344 143.648438 139.714844 C 142.425781 139.894531 140.992188 139.527344 140.382812 139.140625 L 141.152344 137.386719 C 141.902344 137.546875 142.652344 137.816406 143.371094 137.683594 C 146.308594 137.125 146.179688 134.074219 144.46875 132.808594 C 143.871094 132.367188 143.023438 132.3125 142.3125 132.394531 C 140.335938 132.609375 139.0625 134.089844 136.859375 134.230469 C 134.453125 134.378906 132.773438 132.910156 132.378906 130.5625 C 132.171875 129.320312 132.464844 128.121094 133.085938 127.148438 C 134.359375 125.152344 137.066406 124.878906 139.035156 126.046875 L 138.269531 127.859375 C 137.203125 127.292969 135.308594 127.292969 134.601562 128.414062 C 134.226562 128.992188 134.097656 129.585938 134.214844 130.199219 C 134.460938 131.523438 135.359375 132.292969 136.636719 132.136719 C 138.777344 131.875 140.222656 130.113281 142.328125 130.183594 C 143.328125 130.21875 144.519531 130.46875 145.53125 131.074219 "/>
<path fill-rule="evenodd" fill="rgb(13.729858%, 12.159729%, 12.548828%)" fill-opacity="1" d="M 152.800781 128.9375 L 151.566406 130.460938 L 137.351562 121.546875 L 138.59375 120.027344 Z M 152.800781 128.9375 "/>
<path fill-rule="evenodd" fill="rgb(13.729858%, 12.159729%, 12.548828%)" fill-opacity="1" d="M 145.628906 110.960938 L 144.058594 113.878906 L 157.480469 121.773438 L 156.578125 123.445312 L 143.152344 115.554688 L 141.582031 118.464844 L 139.90625 117.480469 L 143.953125 109.972656 Z M 145.628906 110.960938 "/>
<path fill-rule="evenodd" fill="rgb(13.729858%, 12.159729%, 12.548828%)" fill-opacity="1" d="M 148.089844 99.867188 L 156.277344 107.1875 L 161.746094 109.53125 L 161.082031 111.375 L 156.015625 109.410156 L 144.351562 109.144531 L 144.917969 107.273438 L 153.054688 107.402344 L 147.289062 102.105469 Z M 148.089844 99.867188 "/>
<path fill-rule="evenodd" fill="rgb(13.729858%, 12.159729%, 12.548828%)" fill-opacity="1" d="M 35.882812 140.835938 C 34.433594 142.277344 33.085938 143.023438 31.824219 143.070312 C 30.570312 143.109375 29.4375 142.609375 28.414062 141.566406 C 27.488281 140.621094 27.023438 139.523438 27.035156 138.257812 C 27.039062 137.617188 27.226562 136.960938 27.59375 136.285156 L 29.4375 137.414062 C 29.273438 137.730469 29.195312 138.03125 29.191406 138.328125 C 29.171875 139.011719 29.378906 139.585938 29.820312 140.039062 C 30.445312 140.667969 31.101562 140.957031 31.78125 140.902344 C 32.46875 140.839844 33.304688 140.332031 34.277344 139.351562 L 42.480469 131.234375 L 44.011719 132.789062 Z M 35.882812 140.835938 "/>
<path fill-rule="evenodd" fill="rgb(13.729858%, 12.159729%, 12.548828%)" fill-opacity="1" d="M 111.035156 126.027344 L 110.65625 136.675781 L 109.027344 137.703125 L 109.171875 127.636719 L 102.953125 130.65625 L 102.40625 129.460938 L 110.226562 125.394531 Z M 88.511719 134.855469 C 88.511719 134.320312 88.644531 133.835938 88.898438 133.398438 C 89.164062 132.960938 89.519531 132.578125 89.96875 132.257812 C 90.398438 131.957031 90.925781 131.714844 91.542969 131.546875 C 92.164062 131.371094 92.792969 131.285156 93.433594 131.285156 C 94.144531 131.285156 94.796875 131.371094 95.371094 131.527344 C 95.949219 131.6875 96.445312 131.917969 96.875 132.21875 C 97.410156 132.597656 97.820312 133.09375 98.117188 133.703125 C 98.410156 134.320312 98.5625 135.101562 98.5625 136.042969 C 98.5625 136.894531 98.414062 137.703125 98.128906 138.46875 C 97.839844 139.238281 97.421875 139.871094 96.859375 140.378906 C 96.261719 140.914062 95.539062 141.320312 94.707031 141.605469 C 93.867188 141.882812 92.839844 142.023438 91.613281 142.023438 C 91.335938 142.023438 91.039062 142.011719 90.730469 142 C 90.417969 141.972656 90.125 141.933594 89.851562 141.882812 L 89.851562 140.550781 L 89.960938 140.550781 C 90.132812 140.621094 90.402344 140.6875 90.773438 140.742188 C 91.136719 140.800781 91.511719 140.828125 91.890625 140.828125 C 93.253906 140.828125 94.320312 140.535156 95.097656 139.933594 C 95.867188 139.339844 96.3125 138.488281 96.414062 137.378906 C 95.859375 137.628906 95.332031 137.808594 94.832031 137.929688 C 94.332031 138.042969 93.785156 138.101562 93.1875 138.101562 C 92.609375 138.101562 92.09375 138.058594 91.621094 137.976562 C 91.148438 137.890625 90.675781 137.730469 90.199219 137.488281 C 89.636719 137.210938 89.226562 136.851562 88.9375 136.417969 C 88.652344 135.984375 88.511719 135.464844 88.511719 134.855469 M 96.46875 135.738281 C 96.46875 135.035156 96.375 134.464844 96.179688 134.023438 C 95.976562 133.582031 95.71875 133.242188 95.375 133.003906 C 95.070312 132.777344 94.765625 132.628906 94.445312 132.539062 C 94.136719 132.464844 93.796875 132.421875 93.421875 132.421875 C 92.5625 132.421875 91.890625 132.621094 91.390625 133.03125 C 90.875 133.4375 90.628906 134.027344 90.628906 134.796875 C 90.628906 135.230469 90.703125 135.59375 90.871094 135.878906 C 91.039062 136.15625 91.3125 136.398438 91.683594 136.601562 C 91.945312 136.742188 92.25 136.839844 92.582031 136.890625 C 92.910156 136.945312 93.269531 136.964844 93.648438 136.964844 C 94.09375 136.964844 94.570312 136.914062 95.085938 136.808594 C 95.597656 136.703125 96.046875 136.5625 96.421875 136.394531 C 96.429688 136.324219 96.445312 136.234375 96.449219 136.121094 C 96.460938 136.007812 96.46875 135.882812 96.46875 135.738281 M 76.59375 142.039062 C 75.8125 141.933594 75.109375 141.757812 74.5 141.515625 C 73.886719 141.273438 73.382812 140.984375 72.984375 140.640625 C 72.601562 140.304688 72.335938 139.929688 72.171875 139.523438 C 72.023438 139.117188 71.992188 138.703125 72.070312 138.277344 C 72.183594 137.730469 72.519531 137.253906 73.070312 136.851562 C 73.613281 136.453125 74.351562 136.179688 75.273438 136.023438 L 75.285156 135.984375 C 74.566406 135.582031 74.058594 135.1875 73.75 134.789062 C 73.445312 134.386719 73.351562 133.929688 73.457031 133.410156 C 73.605469 132.640625 74.183594 132.066406 75.191406 131.679688 C 76.191406 131.292969 77.378906 131.195312 78.753906 131.386719 C 80.191406 131.589844 81.292969 131.984375 82.058594 132.59375 C 82.820312 133.195312 83.128906 133.882812 82.976562 134.636719 C 82.882812 135.097656 82.585938 135.519531 82.078125 135.910156 C 81.574219 136.296875 80.910156 136.5625 80.078125 136.703125 L 80.070312 136.742188 C 80.929688 137.152344 81.558594 137.589844 81.953125 138.050781 C 82.347656 138.511719 82.484375 139.058594 82.355469 139.679688 C 82.175781 140.550781 81.539062 141.210938 80.441406 141.667969 C 79.339844 142.117188 78.058594 142.242188 76.59375 142.039062 M 80.152344 139.507812 C 80.234375 139.089844 80.183594 138.738281 79.976562 138.460938 C 79.769531 138.171875 79.328125 137.855469 78.652344 137.5 C 78.433594 137.382812 78.132812 137.246094 77.753906 137.089844 C 77.378906 136.933594 76.945312 136.75 76.476562 136.546875 C 75.839844 136.714844 75.332031 136.953125 74.941406 137.285156 C 74.5625 137.609375 74.320312 138.003906 74.222656 138.472656 C 74.09375 139.09375 74.28125 139.636719 74.78125 140.117188 C 75.269531 140.601562 75.953125 140.898438 76.820312 141.023438 C 77.710938 141.144531 78.457031 141.070312 79.0625 140.800781 C 79.671875 140.535156 80.035156 140.097656 80.152344 139.507812 M 80.898438 134.367188 C 80.992188 133.910156 80.835938 133.496094 80.425781 133.121094 C 80.011719 132.753906 79.378906 132.511719 78.542969 132.394531 C 77.773438 132.289062 77.113281 132.339844 76.566406 132.539062 C 76.019531 132.742188 75.699219 133.078125 75.605469 133.546875 C 75.535156 133.882812 75.605469 134.1875 75.8125 134.449219 C 76.011719 134.714844 76.34375 134.984375 76.808594 135.234375 C 77.007812 135.34375 77.320312 135.503906 77.738281 135.699219 C 78.164062 135.898438 78.550781 136.054688 78.910156 136.191406 C 79.582031 135.972656 80.058594 135.714844 80.34375 135.421875 C 80.632812 135.128906 80.8125 134.777344 80.898438 134.367188 M 63.765625 137.992188 L 58.019531 134.429688 L 58.542969 133.53125 L 60.679688 134.851562 L 64.09375 128.902344 L 61.957031 127.578125 L 62.421875 126.773438 C 63.230469 127.273438 63.871094 127.554688 64.351562 127.613281 C 64.835938 127.683594 65.234375 127.488281 65.5625 127.039062 L 66.792969 127.800781 L 62.199219 135.796875 L 64.28125 137.089844 Z M 63.765625 137.992188 "/>
<path fill-rule="evenodd" fill="rgb(13.729858%, 12.159729%, 12.548828%)" fill-opacity="1" d="M 114.429688 39.855469 C 113.179688 39.25 114.066406 39.027344 114.132812 37.851562 C 114.191406 36.839844 113.542969 35.675781 113.742188 34.960938 C 114.289062 33.042969 116.75 33.769531 118.105469 34.757812 C 118.34375 34.933594 118.5625 35.410156 118.742188 35.882812 C 119.179688 37.050781 119.640625 38.691406 118.304688 39.523438 C 117.152344 40.246094 115.511719 40.378906 114.429688 39.855469 "/>
<path fill-rule="evenodd" fill="rgb(13.729858%, 12.159729%, 12.548828%)" fill-opacity="1" d="M 99.949219 34.183594 C 99.910156 34.15625 99.871094 34.128906 99.835938 34.097656 C 99.878906 33.949219 99.925781 33.808594 99.96875 33.683594 C 100.414062 33.628906 104.566406 32.167969 104.578125 32.066406 C 105.835938 31.496094 106.984375 30.792969 107.609375 29.53125 C 104.839844 29.734375 101.953125 31.019531 99.253906 30.570312 C 98.085938 29.960938 97.40625 29.085938 96.636719 28.5 C 96.644531 28.441406 96.65625 28.394531 96.664062 28.355469 C 95.480469 27.089844 95.644531 25.882812 97.316406 25.746094 C 99.84375 26.996094 104.402344 26.082031 107.160156 25.746094 C 107.789062 25.625 109.554688 25.445312 110.125 25.035156 C 111.578125 21.652344 112.058594 18.015625 113.085938 14.691406 C 114.546875 12.460938 115.65625 14.488281 116.875 16.082031 C 116.921875 16.304688 117.214844 16.617188 117.414062 17.152344 C 117.457031 17.160156 117.492188 17.167969 117.554688 17.179688 C 117.953125 18.351562 118.015625 18.855469 116.789062 19.570312 C 115.71875 21.058594 114.945312 22.816406 114.558594 24.757812 C 116.457031 24.945312 117.964844 23.609375 120.097656 24.09375 C 120.367188 25.207031 120.101562 26.03125 118.964844 26.621094 C 117.226562 26.984375 115.378906 27.242188 113.425781 27.613281 C 112.585938 29.296875 111.339844 31.300781 109.734375 32.445312 C 109.5 32.621094 108.382812 33.238281 108.132812 33.3125 C 106.832031 33.695312 105.609375 34.25 104.277344 34.296875 C 100.585938 34.417969 100.585938 34.246094 99.949219 34.183594 "/>
<path fill-rule="evenodd" fill="rgb(13.729858%, 12.159729%, 12.548828%)" fill-opacity="1" d="M 57.917969 46.472656 C 56.386719 46.382812 54.597656 45.28125 53.511719 44.578125 C 53.496094 44.191406 53.46875 43.789062 53.484375 43.410156 C 55.636719 39.921875 57.824219 36.597656 59.523438 32.789062 C 59.851562 31.164062 60.410156 29.382812 60.816406 27.757812 C 60.839844 27.71875 60.890625 27.667969 60.949219 27.644531 C 60.921875 27.585938 60.902344 27.546875 60.886719 27.507812 C 61.429688 26.597656 61.691406 26.304688 62.75 27.039062 C 63.132812 27.859375 61.980469 29.34375 61.816406 30.3125 C 61.820312 32.042969 61.753906 33.824219 61.589844 35.648438 C 61.457031 36.015625 61.457031 36.015625 61.109375 38.003906 C 60.53125 38.953125 60.097656 41.058594 60.03125 42.242188 C 59.289062 43.179688 59.546875 45.046875 58.617188 46.097656 C 58.363281 46.214844 58.136719 46.34375 57.917969 46.472656 "/>
<path fill-rule="evenodd" fill="rgb(13.729858%, 12.159729%, 12.548828%)" fill-opacity="1" d="M 71.734375 28.660156 C 69.824219 29.316406 68.808594 28.320312 67.355469 27.636719 C 67.125 27.144531 67.308594 26.730469 67.21875 26.375 C 67.644531 26.078125 67.644531 26.078125 67.863281 25.78125 C 68.609375 25.367188 68.910156 25.292969 69.75 24.90625 C 70.726562 24.234375 72.761719 21.226562 74.015625 21.683594 C 75.054688 23.914062 73.464844 27.207031 71.734375 28.660156 "/>
<path fill-rule="evenodd" fill="rgb(13.729858%, 12.159729%, 12.548828%)" fill-opacity="1" d="M 55.84375 30.738281 C 54.875 30.386719 53.589844 27.539062 53.171875 26.636719 C 53.0625 24.800781 54.675781 24.09375 56.457031 24.613281 C 58.105469 25.617188 59.078125 25.917969 58.597656 28.035156 C 57.75 29.65625 57.203125 29.960938 55.84375 30.738281 "/>
<path fill-rule="evenodd" fill="rgb(13.729858%, 12.159729%, 12.548828%)" fill-opacity="1" d="M 69.246094 23.832031 C 68.703125 23.027344 69.179688 20.652344 68.652344 20.328125 C 68.222656 20.582031 67.820312 20.9375 67.351562 21.152344 C 66 21.046875 64.214844 20.15625 64.25 18.910156 C 64.714844 17.628906 64.488281 17.996094 65.765625 17.398438 C 66.785156 16.355469 67.824219 15.324219 68.875 14.285156 C 70.839844 13.070312 72.265625 13.839844 73.210938 15.863281 C 73.359375 17.351562 72.882812 18.753906 72.425781 20.15625 C 71.542969 21.207031 70.792969 22.28125 70.03125 23.355469 C 69.753906 23.507812 69.5 23.671875 69.246094 23.832031 "/>
<path fill-rule="evenodd" fill="rgb(13.729858%, 12.159729%, 12.548828%)" fill-opacity="1" d="M 55.324219 22.394531 C 54.726562 22.179688 54.832031 21.890625 54.914062 21.402344 C 54.511719 20.554688 53.710938 20.054688 53.332031 19.234375 C 53.007812 17.585938 52.496094 17.140625 53.476562 15.90625 C 54.636719 15.949219 58.777344 16.359375 58.710938 18.617188 C 58.246094 20.183594 56.632812 21.691406 55.324219 22.394531 "/>
<path fill-rule="evenodd" fill="rgb(13.729858%, 12.159729%, 12.548828%)" fill-opacity="1" d="M 34.113281 79.269531 C 32.324219 80.503906 28.011719 79.6875 28.585938 77.109375 C 28.335938 76.859375 28.203125 76.40625 28.289062 76.109375 C 28.234375 76.070312 28.191406 76.050781 28.15625 76.035156 C 27.703125 73.332031 26.242188 70.761719 25.445312 68.210938 C 25.027344 67.410156 24.527344 66.789062 24.847656 65.914062 C 25.441406 65.761719 26.097656 66.40625 26.597656 66.902344 C 26.863281 66.84375 27.15625 66.191406 27.28125 65.765625 C 27.085938 63.976562 27.234375 61.914062 26.980469 60.089844 C 26.519531 59.695312 26.066406 59.289062 25.632812 58.878906 C 25.28125 59.800781 24.109375 62.792969 23.089844 61.175781 C 23.371094 59.949219 23.546875 57.910156 22.855469 56.671875 C 21.96875 55.703125 20.695312 55.03125 20.300781 53.976562 C 20.484375 52.503906 22.738281 52.160156 24.058594 52.746094 C 25.125 52.835938 25.105469 50.832031 26.316406 54.148438 C 26.34375 54.691406 26.863281 55.027344 27.457031 55.332031 C 27.554688 55.214844 27.652344 55.097656 27.742188 54.976562 C 27.71875 53.566406 27.691406 52.023438 27.8125 50.519531 C 26.492188 49.1875 25.382812 48.070312 24.601562 46.457031 C 24.601562 44.902344 26.359375 44.011719 27.886719 43.550781 C 28.378906 42.71875 28.390625 42 28.359375 40.9375 C 28.460938 40.59375 28.460938 40.59375 28.828125 40.066406 C 29.355469 40.105469 29.789062 40.296875 30.382812 40.640625 C 31.589844 42.21875 29.042969 47.011719 31.433594 47.394531 C 31.917969 46.585938 31.25 45.734375 30.882812 45.066406 C 31.019531 43.875 32.859375 42.382812 34.15625 41.925781 C 36.078125 41.757812 35.960938 42.839844 35.96875 44.488281 C 36.058594 44.71875 36.148438 44.949219 36.25 45.15625 C 38.679688 46.929688 38.679688 46.929688 42.0625 49.210938 C 42.707031 50.21875 42.957031 50.796875 43.214844 52 C 43.253906 52.019531 43.289062 52.042969 43.324219 52.066406 C 43.292969 52.125 43.269531 52.15625 43.246094 52.191406 C 43.703125 53.140625 43.722656 54.699219 42.585938 54.84375 C 39.816406 52.964844 37.0625 50.835938 34.367188 49.125 C 34.339844 49.179688 34.320312 49.246094 34.316406 49.296875 C 35.523438 50.417969 37.125 53.496094 37.167969 55.21875 C 36.503906 56.328125 35.277344 56.785156 34.167969 56.476562 C 33.96875 56.179688 34.046875 55.929688 34.007812 55.582031 C 33.191406 54.140625 30.8125 52.765625 29.605469 51.945312 C 29.144531 52.890625 30.089844 55.683594 30.378906 56.832031 C 30.425781 57.503906 30.46875 58.1875 30.523438 58.84375 C 31.339844 59.855469 32.1875 60.78125 33.097656 61.804688 C 33.429688 62.375 33.773438 62.957031 34.128906 63.546875 C 34.097656 63.597656 34.074219 63.636719 34.058594 63.675781 C 34.453125 64.539062 35.339844 67.070312 33.6875 67.078125 C 33.527344 66.984375 33.382812 66.890625 33.242188 66.785156 C 32.726562 65.476562 31.726562 64.058594 30.640625 63.285156 C 30.257812 64.578125 30.75 65.945312 30.089844 67.042969 C 29.546875 67.570312 28.933594 68.050781 28.453125 68.3125 C 28.398438 68.277344 28.367188 68.257812 28.324219 68.242188 C 27.988281 68.386719 27.574219 68.484375 27.53125 68.683594 C 27.996094 69.289062 28.480469 69.902344 28.96875 70.5 C 30.496094 73.164062 32.191406 75.5 34.210938 77.929688 C 34.335938 78.601562 34.300781 78.78125 34.113281 79.269531 "/>
<path fill-rule="evenodd" fill="rgb(13.729858%, 12.159729%, 12.548828%)" fill-opacity="1" d="M 22.398438 68.164062 C 21.699219 68.164062 21.347656 67.335938 20.808594 66.9375 C 18.894531 66.386719 17.449219 66 16.816406 64.097656 C 16.898438 63.921875 16.996094 63.753906 17.09375 63.585938 C 18.097656 63.214844 19.957031 62.984375 21.207031 62.929688 C 23.59375 63.457031 22.777344 66.445312 22.398438 68.164062 "/>
<path fill-rule="evenodd" fill="rgb(13.729858%, 12.159729%, 12.548828%)" fill-opacity="1" d="M 17.386719 62.519531 C 16.980469 62.820312 16.902344 62.75 16.710938 62.730469 C 16.453125 62.285156 16.359375 61.949219 15.914062 61.761719 C 13.792969 61.710938 11.605469 60.125 11.996094 57.964844 C 12.378906 57.527344 12.796875 57.792969 13.605469 58.03125 C 15.390625 57.675781 18.058594 56.5625 18.164062 59.429688 C 17.980469 60.46875 17.65625 61.527344 17.386719 62.519531 "/>
<path fill-rule="nonzero" fill="rgb(13.729858%, 12.159729%, 12.548828%)" fill-opacity="1" d="M 126.789062 65.238281 L 105.808594 65.222656 C 99.691406 65.222656 96.546875 71.21875 94.226562 76.65625 L 90.691406 68.695312 L 96.632812 66.5 C 93.15625 63.210938 82.328125 61.414062 80.898438 66.367188 L 78.347656 76.644531 C 76.324219 72.011719 73.480469 65.242188 67.066406 65.238281 L 45.78125 65.242188 C 48.546875 70.136719 51.191406 71.898438 60.984375 71.476562 L 62.265625 74.847656 L 51.53125 74.902344 C 54.699219 80.746094 56.527344 80.992188 65.175781 80.746094 L 67.003906 84.785156 L 58.558594 85.089844 C 60.375 89.21875 62.277344 90.988281 69.527344 90.65625 L 70.941406 94.238281 L 64.222656 94.273438 C 66.746094 98.433594 67.992188 100.34375 73.316406 99.875 L 74.746094 103.773438 L 70.09375 103.773438 C 72.105469 108.265625 74.445312 108.453125 77.304688 108.902344 C 79.875 109.300781 80.242188 114.113281 77.246094 115.660156 L 86.28125 130.320312 L 95.320312 115.65625 C 92.3125 114.109375 92.6875 109.296875 95.261719 108.898438 C 98.121094 108.449219 100.460938 108.265625 102.46875 103.769531 L 97.820312 103.769531 L 99.246094 99.867188 C 104.566406 100.339844 105.8125 98.429688 108.339844 94.273438 L 101.625 94.230469 L 103.035156 90.648438 C 110.28125 90.988281 112.1875 89.210938 114.003906 85.082031 L 105.5625 84.785156 L 107.390625 80.746094 C 116.03125 80.988281 117.859375 80.746094 121.035156 74.894531 L 110.292969 74.847656 L 111.582031 71.46875 C 121.363281 71.890625 124.015625 70.128906 126.789062 65.238281 "/>
<path fill-rule="nonzero" fill="rgb(13.729858%, 12.159729%, 12.548828%)" fill-opacity="1" d="M 150.535156 56.449219 L 150.875 56.136719 C 151.347656 55.703125 151.554688 55.492188 151.605469 55.28125 C 151.585938 55.199219 151.488281 55.09375 151.277344 54.941406 L 151.167969 54.925781 C 151.105469 54.929688 151.035156 54.941406 150.945312 54.941406 C 150.566406 54.941406 150.335938 54.761719 150.203125 54.605469 L 150.046875 54.484375 L 150.058594 54.304688 L 150.195312 53.875 L 150.117188 53.847656 L 150.578125 53.699219 C 152.121094 53.191406 152.121094 53.191406 152.378906 53.039062 L 152.496094 52.839844 L 152.796875 53.09375 C 153.121094 53.363281 154.199219 54.351562 154.367188 55.605469 L 154.214844 55.785156 C 153.386719 56.765625 152.273438 56.941406 151.191406 56.976562 L 150.902344 57.042969 L 150.753906 56.589844 L 150.550781 56.457031 Z M 158.742188 55.195312 L 158.820312 55.011719 C 159.125 54.261719 159.105469 53.945312 159.039062 53.816406 C 158.945312 53.636719 158.613281 53.546875 158.089844 53.410156 C 157.949219 53.375 157.789062 53.347656 157.609375 53.324219 L 157.316406 53.28125 L 157.222656 53.070312 C 157.117188 52.964844 157.015625 52.851562 156.886719 52.757812 L 156.480469 52.617188 L 156.386719 52.570312 L 156.910156 52.175781 C 157.285156 51.890625 157.703125 51.757812 158.171875 51.605469 L 158.21875 51.484375 L 158.421875 51.5625 C 159.164062 50.921875 159.65625 49.980469 159.722656 49.003906 C 159.496094 48.695312 159.117188 48.550781 158.542969 48.550781 C 157.804688 48.5625 156.90625 48.84375 156.109375 49.09375 C 155.617188 49.246094 155.011719 49.441406 154.476562 49.542969 L 154.292969 49.453125 C 152.949219 48.808594 152.894531 48.78125 150.089844 47.308594 C 149.890625 47.441406 149.730469 47.636719 149.636719 47.867188 C 149.46875 48.273438 149.496094 48.726562 149.714844 49.160156 L 149.976562 49.363281 L 150 49.386719 L 150.003906 49.394531 L 149.339844 49.746094 C 149.1875 49.832031 149.152344 49.851562 149.167969 49.851562 L 149.179688 49.851562 L 148.984375 50.027344 C 149.003906 50.097656 149.046875 50.226562 149.148438 50.40625 L 149.199219 50.703125 C 149.1875 50.960938 149.136719 51.070312 148.925781 51.316406 L 148.84375 51.636719 L 148.828125 51.675781 L 148.824219 51.675781 L 148.414062 51.351562 C 147.878906 50.929688 147.832031 50.886719 147.429688 50.519531 C 147.324219 50.5 147.21875 50.488281 147.09375 50.488281 C 146.792969 50.5 146.546875 50.59375 146.433594 50.742188 C 146.320312 50.90625 146.335938 51.121094 146.460938 51.414062 L 146.417969 51.570312 C 146.324219 51.972656 145.988281 52.65625 144.742188 52.675781 L 144.097656 52.664062 C 143.976562 52.664062 143.855469 52.667969 143.652344 52.761719 C 143.648438 53.605469 144.015625 53.671875 144.910156 53.8125 C 145.246094 53.863281 145.605469 53.921875 146.085938 54.035156 C 146.171875 54 146.253906 53.988281 146.335938 53.988281 C 146.523438 53.988281 146.675781 54.066406 146.855469 54.148438 L 147.523438 54.414062 L 147.757812 54.480469 L 147.867188 54.53125 L 147.054688 54.925781 C 146.746094 55.082031 146.542969 55.1875 146.238281 55.511719 C 146.179688 55.742188 146.0625 55.96875 145.871094 56.195312 L 145.839844 56.378906 L 145.503906 56.300781 C 144.90625 56.15625 144.304688 56 143.699219 55.847656 L 142.773438 55.605469 C 141.125 55.175781 139.082031 54.632812 137.15625 54.300781 C 136.699219 54.136719 136.261719 54.050781 135.816406 53.96875 L 134.90625 53.863281 L 134.863281 54.125 C 135.085938 54.300781 135.382812 54.519531 135.84375 54.8125 L 135.90625 54.964844 C 136.164062 55.59375 136.59375 56.386719 137.597656 56.945312 C 138.257812 57.054688 138.953125 57.136719 139.773438 57.230469 C 142.175781 57.511719 144.652344 57.792969 146.609375 59.257812 L 147.113281 59.519531 L 147.242188 59.511719 L 147.265625 59.519531 L 146.542969 59.882812 C 146.363281 59.976562 146.195312 60.074219 145.972656 60.273438 L 145.75 60.226562 C 143.433594 59.71875 143.433594 59.71875 142.605469 59.453125 C 141.773438 58.917969 141.363281 58.75 140.925781 58.75 C 140.589844 58.753906 140.195312 58.898438 139.53125 59.289062 C 139.492188 59.308594 139.46875 59.316406 139.429688 59.339844 L 139.394531 59.367188 C 139.375 59.382812 139.359375 59.390625 139.335938 59.40625 L 139.101562 59.3125 C 138.84375 59.222656 138.832031 59.21875 138.140625 59.117188 C 137.5 58.890625 136.835938 58.675781 136.128906 58.441406 C 134.132812 57.792969 132.066406 57.113281 130.34375 55.976562 C 129.839844 55.554688 129.503906 55.164062 129.222656 54.835938 C 129.132812 54.726562 129.070312 54.660156 129.019531 54.660156 C 129.011719 54.660156 129 54.664062 128.996094 54.664062 L 128.828125 54.449219 C 128.699219 54.488281 128.488281 54.679688 128.144531 55.058594 C 127.777344 56.191406 128.800781 58.902344 129.722656 59.695312 C 130.375 59.980469 131.0625 60.113281 131.792969 60.25 C 133.007812 60.476562 134.269531 60.71875 135.464844 61.714844 L 135.789062 61.792969 L 135.816406 61.804688 L 135.816406 61.808594 L 135.511719 62.222656 C 135.113281 62.738281 134.65625 63.167969 134.136719 63.640625 L 133.902344 63.839844 C 133.746094 63.964844 133.59375 64.089844 133.492188 64.226562 L 133.257812 64.246094 C 133.089844 64.277344 132.9375 64.292969 132.734375 64.300781 C 131.839844 64.300781 131.070312 63.867188 130.398438 63.492188 C 130.175781 63.367188 129.957031 63.25 129.648438 63.175781 L 129.523438 63.40625 C 130.453125 65 131.726562 66.46875 133.414062 67.867188 L 133.558594 68.101562 C 133.761719 68.214844 133.96875 68.265625 134.1875 68.265625 L 134.214844 68.265625 C 135.425781 68.242188 136.742188 66.574219 137.707031 65.351562 C 137.917969 65.085938 138.113281 64.84375 138.328125 64.609375 L 138.570312 64.429688 C 139.484375 63.757812 139.546875 63.699219 139.511719 63.691406 L 139.738281 63.753906 C 140.511719 63.964844 141.003906 64.261719 141.742188 64.671875 C 142.460938 64.359375 143.199219 63.625 143.132812 62.84375 L 142.835938 62.570312 C 142.402344 62.167969 141.972656 61.773438 141.523438 61.375 L 141.292969 61.332031 L 141.445312 60.960938 C 141.605469 60.570312 141.839844 60.34375 142.152344 60.023438 L 142.1875 59.871094 L 142.492188 59.945312 C 143.792969 60.238281 144.953125 60.597656 146.382812 61.039062 L 147.625 61.449219 L 147.933594 61.679688 C 148.652344 62.210938 149.164062 62.597656 149.976562 62.597656 C 150.105469 62.597656 150.222656 62.585938 150.433594 62.519531 C 151.203125 61.730469 151.632812 61.203125 151.941406 60.59375 L 151.941406 60.589844 C 151.949219 60.570312 151.960938 60.558594 151.96875 60.542969 C 151.730469 60.195312 151.625 60.09375 151.578125 60.09375 L 151.804688 59.824219 C 151.875 59.734375 151.953125 59.671875 152.171875 59.539062 C 154.285156 58.867188 156.570312 58.039062 158.25 57.4375 C 159.261719 56.800781 159.367188 56.734375 159.007812 55.792969 C 158.945312 55.640625 158.867188 55.449219 158.742188 55.195312 "/>
<path fill-rule="nonzero" fill="rgb(13.729858%, 12.159729%, 12.548828%)" fill-opacity="1" d="M 141.574219 52.746094 C 141.105469 52.746094 140.671875 52.605469 140.273438 52.316406 C 140.019531 51.316406 140.765625 50.242188 141.304688 49.453125 C 141.496094 49.1875 141.636719 48.980469 141.746094 48.792969 L 141.835938 48.5625 L 142.019531 48.214844 C 142.238281 47.792969 142.449219 47.375 142.652344 46.902344 C 142.730469 46.660156 142.792969 46.429688 142.851562 46.203125 C 143.179688 44.898438 143.429688 44.078125 144.089844 43.84375 C 144.597656 43.929688 144.847656 44.003906 144.972656 44.1875 C 145.097656 44.378906 145.054688 44.644531 144.953125 45.140625 L 144.863281 45.320312 C 144.9375 45.496094 144.96875 45.710938 145 45.9375 C 145.144531 46.710938 145.179688 47.507812 145.097656 48.238281 L 145.0625 48.53125 C 145.015625 48.816406 144.941406 49.058594 144.859375 49.304688 C 144.554688 50.238281 144.21875 51.289062 143.535156 51.90625 L 143.257812 52.160156 L 143.074219 52.273438 C 142.609375 52.574219 142.105469 52.738281 141.621094 52.746094 Z M 141.574219 52.746094 "/>
<path fill-rule="nonzero" fill="rgb(13.729858%, 12.159729%, 12.548828%)" fill-opacity="1" d="M 141.574219 52.703125 L 141.621094 52.703125 C 142.097656 52.695312 142.59375 52.53125 143.050781 52.234375 L 143.226562 52.128906 L 143.507812 51.875 C 144.175781 51.265625 144.511719 50.222656 144.8125 49.296875 C 144.894531 49.046875 144.972656 48.808594 145.015625 48.527344 L 145.054688 48.238281 C 145.144531 47.433594 145.089844 46.644531 144.953125 45.941406 C 144.925781 45.722656 144.894531 45.5 144.859375 45.292969 L 144.824219 45.300781 L 144.910156 45.132812 C 145.003906 44.664062 145.054688 44.390625 144.9375 44.214844 C 144.824219 44.046875 144.585938 43.96875 144.101562 43.882812 C 143.46875 44.117188 143.226562 44.902344 142.917969 46.132812 C 142.851562 46.390625 142.785156 46.644531 142.695312 46.917969 C 142.488281 47.394531 142.273438 47.8125 142.058594 48.238281 L 141.875 48.582031 L 141.785156 48.816406 C 141.679688 49.003906 141.53125 49.214844 141.347656 49.476562 C 140.808594 50.257812 140.066406 51.324219 140.296875 52.28125 C 140.683594 52.5625 141.113281 52.703125 141.574219 52.703125 "/>
<path fill-rule="nonzero" fill="rgb(13.729858%, 12.159729%, 12.548828%)" fill-opacity="1" d="M 136.949219 51.558594 C 136.71875 51.558594 136.425781 51.429688 135.894531 51.09375 C 135.1875 49.488281 137.722656 47.683594 138.015625 47.480469 C 138.429688 47.578125 138.664062 47.796875 138.804688 48.191406 C 139.09375 49 138.886719 50.144531 138.339844 50.804688 C 137.566406 51.332031 137.25 51.550781 136.960938 51.558594 Z M 136.949219 51.558594 "/>
<path fill-rule="nonzero" fill="rgb(13.729858%, 12.159729%, 12.548828%)" fill-opacity="1" d="M 136.949219 51.511719 L 136.960938 51.511719 C 137.234375 51.507812 137.558594 51.289062 138.300781 50.773438 C 138.84375 50.128906 139.042969 49 138.761719 48.210938 C 138.628906 47.835938 138.414062 47.617188 138.042969 47.515625 C 137.75 47.71875 135.246094 49.511719 135.921875 51.054688 C 136.441406 51.386719 136.730469 51.511719 136.949219 51.511719 "/>
</svg>
